<svg width="365" height="365" viewBox="0 0 365 365" fill="none" xmlns="http://www.w3.org/2000/svg">
<g clip-path="url(#clip0_17_327)">
<path d="M365 182.5C365.063 225.58 349.825 267.282 322.002 300.171C320.992 301.371 319.962 302.552 318.914 303.727C306.578 317.6 292.208 329.522 276.295 339.084C272.645 341.275 268.915 343.34 265.105 345.279C264.72 345.474 264.328 345.67 263.943 345.86C263.482 346.093 263.015 346.321 262.547 346.548C252.906 351.267 242.864 355.117 232.539 358.054C231.466 358.357 230.39 358.651 229.312 358.938C215.73 362.531 201.779 364.542 187.735 364.931C187.002 364.949 186.283 364.962 185.588 364.975C185.342 364.981 185.102 364.987 184.862 364.987C184.072 364.994 183.289 365 182.5 365C167.7 365.011 152.955 363.223 138.586 359.677C137.147 359.323 135.713 358.95 134.286 358.559C126.768 356.507 119.392 353.969 112.203 350.962C108.414 349.383 104.692 347.68 101.038 345.853C100.211 345.437 99.3835 345.02 98.5689 344.59C98.2216 344.42 97.8806 344.237 97.5396 344.06C78.0634 333.78 60.5977 320.077 45.9786 303.607C44.9682 302.476 43.9768 301.327 42.998 300.171C26.8904 281.074 14.8753 258.872 7.6966 234.942C0.517941 211.012 -1.67133 185.863 1.26437 161.052C4.20008 136.242 12.1983 112.298 24.7635 90.7042C37.3288 69.1104 54.1936 50.3261 74.3135 35.5149C75.3491 34.7508 76.3911 33.993 77.4457 33.2541C77.654 33.1089 77.8624 32.9637 78.0708 32.8184C96.6007 19.8388 117.399 10.4465 139.388 5.12767C140.639 4.81824 141.889 4.52776 143.152 4.25623C166.97 -0.953744 191.585 -1.38518 215.571 2.98693C216.828 3.22058 218.084 3.46055 219.335 3.71946C241.128 8.18945 261.913 16.6297 280.652 28.619C281.069 28.8843 281.486 29.1495 281.902 29.4273C282.742 29.9704 283.582 30.5261 284.41 31.0881C309.234 47.7773 329.57 70.3185 343.624 96.7239C357.679 123.129 365.02 152.587 365 182.5Z" fill="#6E57E0"/>
<path d="M306.051 275.461H58.9431C54.4513 275.461 50.1434 277.246 46.9672 280.422C43.791 283.598 42.0066 287.906 42.0066 292.398C42.0066 296.89 43.791 301.198 46.9672 304.374C50.1434 307.55 54.4513 309.334 58.9431 309.334H306.051C308.456 309.335 310.833 308.822 313.025 307.83C315.216 306.838 317.17 305.389 318.756 303.581C319.474 302.764 320.113 301.88 320.663 300.942C321.089 300.222 321.459 299.471 321.768 298.694C322.8 296.124 323.186 293.341 322.891 290.588C322.597 287.835 321.632 285.196 320.08 282.903C318.529 280.61 316.438 278.732 313.992 277.435C311.546 276.137 308.819 275.46 306.051 275.461Z" fill="#CCCCCC"/>
<path d="M322.002 300.172C316.516 306.672 310.582 312.78 304.245 318.453H60.7554C54.4175 312.78 48.4839 306.672 42.998 300.172H322.002Z" fill="#3F3D56"/>
<path d="M202.884 236.852H161.888C161.667 236.85 161.448 236.884 161.238 236.953C160.793 237.091 160.404 237.367 160.127 237.742C159.851 238.118 159.703 238.571 159.703 239.037V303.803H205.076V239.037C205.075 238.75 205.019 238.465 204.908 238.2C204.798 237.934 204.636 237.693 204.433 237.49C204.229 237.288 203.988 237.127 203.722 237.017C203.456 236.908 203.172 236.852 202.884 236.852ZM187.369 268.805C187.37 269.856 187.024 270.877 186.384 271.71C185.773 272.519 184.924 273.115 183.956 273.415C182.988 273.715 181.951 273.704 180.989 273.383C180.028 273.062 179.192 272.448 178.599 271.627C178.005 270.805 177.685 269.819 177.682 268.805V261.291C177.694 260.014 178.209 258.793 179.116 257.895C180.023 256.996 181.248 256.492 182.525 256.492C183.802 256.492 185.027 256.996 185.934 257.895C186.841 258.793 187.357 260.014 187.369 261.291V268.805Z" fill="#2F2E41"/>
<path d="M159.564 301.731V307.977C159.564 308.3 159.692 308.611 159.921 308.841C160.149 309.07 160.459 309.2 160.783 309.202H203.996C204.319 309.199 204.629 309.069 204.857 308.84C205.085 308.61 205.214 308.3 205.215 307.977V301.731H159.564Z" fill="#3F3D56"/>
<path d="M270.769 135.783H95.5315C94.0258 135.784 92.5823 136.383 91.5171 137.447C90.4518 138.511 89.8517 139.954 89.8481 141.46V259.712C89.8493 261.219 90.4484 262.664 91.514 263.729C92.5796 264.795 94.0245 265.394 95.5315 265.395H270.769C272.276 265.394 273.721 264.795 274.787 263.729C275.852 262.664 276.452 261.219 276.453 259.712V141.46C276.449 139.954 275.849 138.511 274.784 137.447C273.719 136.383 272.275 135.784 270.769 135.783Z" fill="#3F3D56"/>
<path d="M269.304 139.887H96.9902C96.1841 139.889 95.4116 140.21 94.8421 140.781C94.2727 141.352 93.9528 142.125 93.9528 142.931V258.253C93.9541 259.058 94.2746 259.83 94.8439 260.4C95.4133 260.969 96.1851 261.289 96.9902 261.291H269.304C270.109 261.289 270.881 260.969 271.451 260.4C272.02 259.83 272.34 259.058 272.342 258.253V142.931C272.342 142.125 272.022 141.352 271.452 140.781C270.883 140.21 270.11 139.889 269.304 139.887Z" fill="#6C63FF"/>
<path d="M237.591 309.101L236 301.542C235.934 301.234 235.792 300.947 235.587 300.707C235.381 300.468 235.12 300.284 234.825 300.171C234.612 300.088 234.385 300.045 234.156 300.045H134.816C134.587 300.045 134.36 300.088 134.147 300.171C133.852 300.284 133.591 300.468 133.386 300.707C133.18 300.947 133.038 301.234 132.972 301.542L131.381 309.101C131.324 309.375 131.328 309.659 131.394 309.931C131.46 310.204 131.586 310.458 131.762 310.676C131.939 310.894 132.162 311.069 132.415 311.19C132.668 311.311 132.945 311.374 133.225 311.374H235.741C236.022 311.375 236.3 311.313 236.554 311.192C236.807 311.07 237.03 310.893 237.206 310.673C237.383 310.456 237.509 310.202 237.576 309.93C237.642 309.658 237.648 309.375 237.591 309.101Z" fill="#2F2E41"/>
<path d="M138.394 301.406H135.853C135.682 301.406 135.544 301.545 135.544 301.715V302.993C135.544 303.163 135.682 303.301 135.853 303.301H138.394C138.564 303.301 138.702 303.163 138.702 302.993V301.715C138.702 301.545 138.564 301.406 138.394 301.406Z" fill="#3F3D56"/>
<path d="M144.709 301.406H142.168C141.997 301.406 141.859 301.545 141.859 301.715V302.993C141.859 303.163 141.997 303.301 142.168 303.301H144.709C144.879 303.301 145.017 303.163 145.017 302.993V301.715C145.017 301.545 144.879 301.406 144.709 301.406Z" fill="#3F3D56"/>
<path d="M151.023 301.406H148.482C148.312 301.406 148.174 301.545 148.174 301.715V302.993C148.174 303.163 148.312 303.301 148.482 303.301H151.023C151.194 303.301 151.332 303.163 151.332 302.993V301.715C151.332 301.545 151.194 301.406 151.023 301.406Z" fill="#3F3D56"/>
<path d="M157.338 301.406H154.797C154.627 301.406 154.489 301.545 154.489 301.715V302.993C154.489 303.163 154.627 303.301 154.797 303.301H157.338C157.508 303.301 157.647 303.163 157.647 302.993V301.715C157.647 301.545 157.508 301.406 157.338 301.406Z" fill="#3F3D56"/>
<path d="M163.653 301.406H161.112C160.942 301.406 160.804 301.545 160.804 301.715V302.993C160.804 303.163 160.942 303.301 161.112 303.301H163.653C163.823 303.301 163.961 303.163 163.961 302.993V301.715C163.961 301.545 163.823 301.406 163.653 301.406Z" fill="#3F3D56"/>
<path d="M169.968 301.406H167.427C167.257 301.406 167.119 301.545 167.119 301.715V302.993C167.119 303.163 167.257 303.301 167.427 303.301H169.968C170.138 303.301 170.276 303.163 170.276 302.993V301.715C170.276 301.545 170.138 301.406 169.968 301.406Z" fill="#3F3D56"/>
<path d="M176.283 301.406H173.742C173.572 301.406 173.434 301.545 173.434 301.715V302.993C173.434 303.163 173.572 303.301 173.742 303.301H176.283C176.453 303.301 176.591 303.163 176.591 302.993V301.715C176.591 301.545 176.453 301.406 176.283 301.406Z" fill="#3F3D56"/>
<path d="M182.598 301.406H180.057C179.887 301.406 179.749 301.545 179.749 301.715V302.993C179.749 303.163 179.887 303.301 180.057 303.301H182.598C182.768 303.301 182.906 303.163 182.906 302.993V301.715C182.906 301.545 182.768 301.406 182.598 301.406Z" fill="#3F3D56"/>
<path d="M188.913 301.406H186.372C186.202 301.406 186.063 301.545 186.063 301.715V302.993C186.063 303.163 186.202 303.301 186.372 303.301H188.913C189.083 303.301 189.221 303.163 189.221 302.993V301.715C189.221 301.545 189.083 301.406 188.913 301.406Z" fill="#3F3D56"/>
<path d="M195.228 301.406H192.687C192.516 301.406 192.378 301.545 192.378 301.715V302.993C192.378 303.163 192.516 303.301 192.687 303.301H195.228C195.398 303.301 195.536 303.163 195.536 302.993V301.715C195.536 301.545 195.398 301.406 195.228 301.406Z" fill="#3F3D56"/>
<path d="M201.542 301.406H199.002C198.831 301.406 198.693 301.545 198.693 301.715V302.993C198.693 303.163 198.831 303.301 199.002 303.301H201.542C201.713 303.301 201.851 303.163 201.851 302.993V301.715C201.851 301.545 201.713 301.406 201.542 301.406Z" fill="#3F3D56"/>
<path d="M207.857 301.406H205.316C205.146 301.406 205.008 301.545 205.008 301.715V302.993C205.008 303.163 205.146 303.301 205.316 303.301H207.857C208.028 303.301 208.166 303.163 208.166 302.993V301.715C208.166 301.545 208.028 301.406 207.857 301.406Z" fill="#3F3D56"/>
<path d="M214.172 301.406H211.631C211.461 301.406 211.323 301.545 211.323 301.715V302.993C211.323 303.163 211.461 303.301 211.631 303.301H214.172C214.342 303.301 214.48 303.163 214.48 302.993V301.715C214.48 301.545 214.342 301.406 214.172 301.406Z" fill="#3F3D56"/>
<path d="M220.487 301.406H217.946C217.776 301.406 217.638 301.545 217.638 301.715V302.993C217.638 303.163 217.776 303.301 217.946 303.301H220.487C220.657 303.301 220.795 303.163 220.795 302.993V301.715C220.795 301.545 220.657 301.406 220.487 301.406Z" fill="#3F3D56"/>
<path d="M226.802 301.406H224.261C224.091 301.406 223.953 301.545 223.953 301.715V302.993C223.953 303.163 224.091 303.301 224.261 303.301H226.802C226.972 303.301 227.11 303.163 227.11 302.993V301.715C227.11 301.545 226.972 301.406 226.802 301.406Z" fill="#3F3D56"/>
<path d="M233.117 301.406H230.576C230.406 301.406 230.268 301.545 230.268 301.715V302.993C230.268 303.163 230.406 303.301 230.576 303.301H233.117C233.287 303.301 233.425 303.163 233.425 302.993V301.715C233.425 301.545 233.287 301.406 233.117 301.406Z" fill="#3F3D56"/>
<path d="M138.319 304.564H135.778C135.608 304.564 135.47 304.702 135.47 304.872V306.15C135.47 306.32 135.608 306.458 135.778 306.458H138.319C138.489 306.458 138.627 306.32 138.627 306.15V304.872C138.627 304.702 138.489 304.564 138.319 304.564Z" fill="#3F3D56"/>
<path d="M144.634 304.564H142.093C141.923 304.564 141.785 304.702 141.785 304.872V306.15C141.785 306.32 141.923 306.458 142.093 306.458H144.634C144.804 306.458 144.942 306.32 144.942 306.15V304.872C144.942 304.702 144.804 304.564 144.634 304.564Z" fill="#3F3D56"/>
<path d="M150.949 304.564H148.408C148.238 304.564 148.1 304.702 148.1 304.872V306.15C148.1 306.32 148.238 306.458 148.408 306.458H150.949C151.119 306.458 151.257 306.32 151.257 306.15V304.872C151.257 304.702 151.119 304.564 150.949 304.564Z" fill="#3F3D56"/>
<path d="M157.264 304.564H154.723C154.553 304.564 154.414 304.702 154.414 304.872V306.15C154.414 306.32 154.553 306.458 154.723 306.458H157.264C157.434 306.458 157.572 306.32 157.572 306.15V304.872C157.572 304.702 157.434 304.564 157.264 304.564Z" fill="#3F3D56"/>
<path d="M163.579 304.564H161.038C160.867 304.564 160.729 304.702 160.729 304.872V306.15C160.729 306.32 160.867 306.458 161.038 306.458H163.579C163.749 306.458 163.887 306.32 163.887 306.15V304.872C163.887 304.702 163.749 304.564 163.579 304.564Z" fill="#3F3D56"/>
<path d="M169.893 304.564H167.353C167.182 304.564 167.044 304.702 167.044 304.872V306.15C167.044 306.32 167.182 306.458 167.353 306.458H169.893C170.064 306.458 170.202 306.32 170.202 306.15V304.872C170.202 304.702 170.064 304.564 169.893 304.564Z" fill="#3F3D56"/>
<path d="M176.208 304.564H173.667C173.497 304.564 173.359 304.702 173.359 304.872V306.15C173.359 306.32 173.497 306.458 173.667 306.458H176.208C176.379 306.458 176.517 306.32 176.517 306.15V304.872C176.517 304.702 176.379 304.564 176.208 304.564Z" fill="#3F3D56"/>
<path d="M182.523 304.564H179.982C179.812 304.564 179.674 304.702 179.674 304.872V306.15C179.674 306.32 179.812 306.458 179.982 306.458H182.523C182.693 306.458 182.831 306.32 182.831 306.15V304.872C182.831 304.702 182.693 304.564 182.523 304.564Z" fill="#3F3D56"/>
<path d="M188.838 304.564H186.297C186.127 304.564 185.989 304.702 185.989 304.872V306.15C185.989 306.32 186.127 306.458 186.297 306.458H188.838C189.008 306.458 189.146 306.32 189.146 306.15V304.872C189.146 304.702 189.008 304.564 188.838 304.564Z" fill="#3F3D56"/>
<path d="M195.153 304.564H192.612C192.442 304.564 192.304 304.702 192.304 304.872V306.15C192.304 306.32 192.442 306.458 192.612 306.458H195.153C195.323 306.458 195.461 306.32 195.461 306.15V304.872C195.461 304.702 195.323 304.564 195.153 304.564Z" fill="#3F3D56"/>
<path d="M201.468 304.564H198.927C198.757 304.564 198.619 304.702 198.619 304.872V306.15C198.619 306.32 198.757 306.458 198.927 306.458H201.468C201.638 306.458 201.776 306.32 201.776 306.15V304.872C201.776 304.702 201.638 304.564 201.468 304.564Z" fill="#3F3D56"/>
<path d="M207.783 304.564H205.242C205.072 304.564 204.934 304.702 204.934 304.872V306.15C204.934 306.32 205.072 306.458 205.242 306.458H207.783C207.953 306.458 208.091 306.32 208.091 306.15V304.872C208.091 304.702 207.953 304.564 207.783 304.564Z" fill="#3F3D56"/>
<path d="M214.098 304.564H211.557C211.386 304.564 211.248 304.702 211.248 304.872V306.15C211.248 306.32 211.386 306.458 211.557 306.458H214.098C214.268 306.458 214.406 306.32 214.406 306.15V304.872C214.406 304.702 214.268 304.564 214.098 304.564Z" fill="#3F3D56"/>
<path d="M220.412 304.564H217.872C217.701 304.564 217.563 304.702 217.563 304.872V306.15C217.563 306.32 217.701 306.458 217.872 306.458H220.412C220.583 306.458 220.721 306.32 220.721 306.15V304.872C220.721 304.702 220.583 304.564 220.412 304.564Z" fill="#3F3D56"/>
<path d="M226.727 304.564H224.186C224.016 304.564 223.878 304.702 223.878 304.872V306.15C223.878 306.32 224.016 306.458 224.186 306.458H226.727C226.898 306.458 227.036 306.32 227.036 306.15V304.872C227.036 304.702 226.898 304.564 226.727 304.564Z" fill="#3F3D56"/>
<path d="M233.042 304.564H230.501C230.331 304.564 230.193 304.702 230.193 304.872V306.15C230.193 306.32 230.331 306.458 230.501 306.458H233.042C233.212 306.458 233.35 306.32 233.35 306.15V304.872C233.35 304.702 233.212 304.564 233.042 304.564Z" fill="#3F3D56"/>
<path d="M190.732 308.353H166.09C165.919 308.353 165.781 308.491 165.781 308.661V309.939C165.781 310.109 165.919 310.247 166.09 310.247H190.732C190.903 310.247 191.041 310.109 191.041 309.939V308.661C191.041 308.491 190.903 308.353 190.732 308.353Z" fill="#3F3D56"/>
<path d="M260.645 155.773H99.4119C99.2442 155.77 99.0847 155.7 98.9675 155.581C98.8503 155.461 98.7846 155.3 98.7846 155.132C98.7846 154.964 98.8503 154.804 98.9675 154.684C99.0847 154.564 99.2442 154.495 99.4119 154.491H260.645C260.813 154.495 260.973 154.564 261.09 154.684C261.207 154.804 261.273 154.964 261.273 155.132C261.273 155.3 261.207 155.461 261.09 155.581C260.973 155.7 260.813 155.77 260.645 155.773Z" fill="#3F3D56"/>
<path d="M110.387 151.217C112.462 151.217 114.145 149.497 114.145 147.376C114.145 145.254 112.462 143.535 110.387 143.535C108.312 143.535 106.63 145.254 106.63 147.376C106.63 149.497 108.312 151.217 110.387 151.217Z" fill="#3F3D56"/>
<path d="M123.368 151.217C125.443 151.217 127.126 149.497 127.126 147.376C127.126 145.254 125.443 143.535 123.368 143.535C121.293 143.535 119.61 145.254 119.61 147.376C119.61 149.497 121.293 151.217 123.368 151.217Z" fill="#3F3D56"/>
<path d="M136.349 151.217C138.424 151.217 140.107 149.497 140.107 147.376C140.107 145.254 138.424 143.535 136.349 143.535C134.274 143.535 132.591 145.254 132.591 147.376C132.591 149.497 134.274 151.217 136.349 151.217Z" fill="#3F3D56"/>
<path d="M252.829 144.484H243.609C243.427 144.489 243.253 144.564 243.126 144.694C242.999 144.825 242.927 145 242.927 145.182C242.927 145.365 242.999 145.54 243.126 145.67C243.253 145.8 243.427 145.876 243.609 145.88H252.829C253.012 145.877 253.187 145.803 253.316 145.672C253.445 145.542 253.517 145.366 253.517 145.182C253.517 144.999 253.445 144.823 253.316 144.692C253.187 144.562 253.012 144.487 252.829 144.484Z" fill="#3F3D56"/>
<path d="M252.829 147.105H243.609C243.427 147.109 243.253 147.184 243.126 147.315C242.998 147.445 242.927 147.62 242.927 147.803C242.927 147.985 242.998 148.161 243.126 148.291C243.253 148.421 243.427 148.497 243.609 148.501H252.829C253.012 148.498 253.188 148.424 253.317 148.293C253.446 148.163 253.518 147.987 253.518 147.803C253.518 147.619 253.446 147.443 253.317 147.312C253.188 147.182 253.012 147.107 252.829 147.105Z" fill="#3F3D56"/>
<path d="M252.829 149.726H243.609C243.427 149.73 243.253 149.805 243.126 149.936C242.999 150.066 242.927 150.241 242.927 150.424C242.927 150.606 242.999 150.781 243.126 150.911C243.253 151.042 243.427 151.117 243.609 151.121H252.829C253.012 151.119 253.187 151.044 253.316 150.914C253.445 150.783 253.517 150.607 253.517 150.424C253.517 150.24 253.445 150.064 253.316 149.934C253.187 149.803 253.012 149.728 252.829 149.726Z" fill="#3F3D56"/>
<path d="M113.314 170.674H110.001C108.997 170.674 108.183 171.489 108.183 172.493C108.183 173.497 108.997 174.312 110.001 174.312H113.314C114.319 174.312 115.133 173.497 115.133 172.493C115.133 171.489 114.319 170.674 113.314 170.674Z" fill="#6E57E0"/>
<path d="M151.204 170.674H147.891C146.886 170.674 146.072 171.489 146.072 172.493C146.072 173.497 146.886 174.312 147.891 174.312H151.204C152.208 174.312 153.022 173.497 153.022 172.493C153.022 171.489 152.208 170.674 151.204 170.674Z" fill="#6E57E0"/>
<path d="M161.939 170.674H158.626C157.622 170.674 156.807 171.489 156.807 172.493C156.807 173.497 157.622 174.312 158.626 174.312H161.939C162.943 174.312 163.758 173.497 163.758 172.493C163.758 171.489 162.943 170.674 161.939 170.674Z" fill="#6E57E0"/>
<path d="M140.898 170.371H120.307C119.303 170.371 118.489 171.185 118.489 172.19C118.489 173.194 119.303 174.008 120.307 174.008H140.898C141.902 174.008 142.716 173.194 142.716 172.19C142.716 171.185 141.902 170.371 140.898 170.371Z" fill="#6E57E0"/>
<path d="M191.417 170.371H170.826C169.822 170.371 169.008 171.185 169.008 172.19C169.008 173.194 169.822 174.008 170.826 174.008H191.417C192.421 174.008 193.235 173.194 193.235 172.19C193.235 171.185 192.421 170.371 191.417 170.371Z" fill="#6E57E0"/>
<path d="M123.418 178.884H120.105C119.101 178.884 118.287 179.698 118.287 180.702C118.287 181.707 119.101 182.521 120.105 182.521H123.418C124.423 182.521 125.237 181.707 125.237 180.702C125.237 179.698 124.423 178.884 123.418 178.884Z" fill="#6E57E0"/>
<path d="M161.307 178.884H157.995C156.99 178.884 156.176 179.698 156.176 180.702C156.176 181.707 156.99 182.521 157.995 182.521H161.307C162.312 182.521 163.126 181.707 163.126 180.702C163.126 179.698 162.312 178.884 161.307 178.884Z" fill="#6E57E0"/>
<path d="M172.043 178.884H168.73C167.725 178.884 166.911 179.698 166.911 180.702C166.911 181.707 167.725 182.521 168.73 182.521H172.043C173.047 182.521 173.861 181.707 173.861 180.702C173.861 179.698 173.047 178.884 172.043 178.884Z" fill="#6E57E0"/>
<path d="M151.001 178.58H130.411C129.407 178.58 128.593 179.395 128.593 180.399C128.593 181.404 129.407 182.218 130.411 182.218H151.001C152.006 182.218 152.82 181.404 152.82 180.399C152.82 179.395 152.006 178.58 151.001 178.58Z" fill="#6E57E0"/>
<path d="M201.52 178.58H180.93C179.926 178.58 179.112 179.395 179.112 180.399C179.112 181.404 179.926 182.218 180.93 182.218H201.52C202.525 182.218 203.339 181.404 203.339 180.399C203.339 179.395 202.525 178.58 201.52 178.58Z" fill="#6E57E0"/>
<path d="M133.522 187.093H130.209C129.205 187.093 128.39 187.907 128.39 188.912C128.39 189.916 129.205 190.73 130.209 190.73H133.522C134.526 190.73 135.341 189.916 135.341 188.912C135.341 187.907 134.526 187.093 133.522 187.093Z" fill="#6E57E0"/>
<path d="M171.411 187.093H168.098C167.094 187.093 166.28 187.907 166.28 188.912C166.28 189.916 167.094 190.73 168.098 190.73H171.411C172.416 190.73 173.23 189.916 173.23 188.912C173.23 187.907 172.416 187.093 171.411 187.093Z" fill="#6E57E0"/>
<path d="M182.147 187.093H178.834C177.829 187.093 177.015 187.907 177.015 188.912C177.015 189.916 177.829 190.73 178.834 190.73H182.147C183.151 190.73 183.965 189.916 183.965 188.912C183.965 187.907 183.151 187.093 182.147 187.093Z" fill="#6E57E0"/>
<path d="M161.105 186.79H140.515C139.511 186.79 138.696 187.604 138.696 188.608C138.696 189.613 139.511 190.427 140.515 190.427H161.105C162.11 190.427 162.924 189.613 162.924 188.608C162.924 187.604 162.11 186.79 161.105 186.79Z" fill="#6E57E0"/>
<path d="M211.624 186.79H191.034C190.03 186.79 189.215 187.604 189.215 188.608C189.215 189.613 190.03 190.427 191.034 190.427H211.624C212.629 190.427 213.443 189.613 213.443 188.608C213.443 187.604 212.629 186.79 211.624 186.79Z" fill="#6E57E0"/>
<path d="M143.626 195.302H140.313C139.308 195.302 138.494 196.117 138.494 197.121C138.494 198.125 139.308 198.94 140.313 198.94H143.626C144.63 198.94 145.444 198.125 145.444 197.121C145.444 196.117 144.63 195.302 143.626 195.302Z" fill="#6E57E0"/>
<path d="M181.515 195.302H178.202C177.198 195.302 176.383 196.117 176.383 197.121C176.383 198.125 177.198 198.94 178.202 198.94H181.515C182.519 198.94 183.334 198.125 183.334 197.121C183.334 196.117 182.519 195.302 181.515 195.302Z" fill="#6E57E0"/>
<path d="M192.25 195.302H188.937C187.933 195.302 187.119 196.117 187.119 197.121C187.119 198.125 187.933 198.94 188.937 198.94H192.25C193.255 198.94 194.069 198.125 194.069 197.121C194.069 196.117 193.255 195.302 192.25 195.302Z" fill="#6E57E0"/>
<path d="M171.209 194.999H150.619C149.614 194.999 148.8 195.813 148.8 196.818C148.8 197.822 149.614 198.636 150.619 198.636H171.209C172.213 198.636 173.028 197.822 173.028 196.818C173.028 195.813 172.213 194.999 171.209 194.999Z" fill="#6E57E0"/>
<path d="M151.204 227.946H147.891C146.886 227.946 146.072 228.76 146.072 229.765C146.072 230.769 146.886 231.583 147.891 231.583H151.204C152.208 231.583 153.022 230.769 153.022 229.765C153.022 228.76 152.208 227.946 151.204 227.946Z" fill="#6E57E0"/>
<path d="M161.939 227.946H158.626C157.622 227.946 156.807 228.76 156.807 229.765C156.807 230.769 157.622 231.583 158.626 231.583H161.939C162.943 231.583 163.758 230.769 163.758 229.765C163.758 228.76 162.943 227.946 161.939 227.946Z" fill="#6E57E0"/>
<path d="M191.417 228.249H170.826C169.822 228.249 169.008 229.064 169.008 230.068C169.008 231.072 169.822 231.887 170.826 231.887H191.417C192.421 231.887 193.235 231.072 193.235 230.068C193.235 229.064 192.421 228.249 191.417 228.249Z" fill="#6E57E0"/>
<path d="M113.314 227.946H110.001C108.997 227.946 108.183 228.76 108.183 229.765C108.183 230.769 108.997 231.583 110.001 231.583H113.314C114.319 231.583 115.133 230.769 115.133 229.765C115.133 228.76 114.319 227.946 113.314 227.946Z" fill="#6E57E0"/>
<path d="M140.898 228.249H120.307C119.303 228.249 118.489 229.064 118.489 230.068C118.489 231.072 119.303 231.887 120.307 231.887H140.898C141.902 231.887 142.716 231.072 142.716 230.068C142.716 229.064 141.902 228.249 140.898 228.249Z" fill="#6E57E0"/>
<path d="M123.418 219.737H120.105C119.101 219.737 118.287 220.551 118.287 221.555C118.287 222.56 119.101 223.374 120.105 223.374H123.418C124.423 223.374 125.237 222.56 125.237 221.555C125.237 220.551 124.423 219.737 123.418 219.737Z" fill="#6E57E0"/>
<path d="M161.307 219.737H157.995C156.99 219.737 156.176 220.551 156.176 221.555C156.176 222.56 156.99 223.374 157.995 223.374H161.307C162.312 223.374 163.126 222.56 163.126 221.555C163.126 220.551 162.312 219.737 161.307 219.737Z" fill="#6E57E0"/>
<path d="M172.043 219.737H168.73C167.725 219.737 166.911 220.551 166.911 221.555C166.911 222.56 167.725 223.374 168.73 223.374H172.043C173.047 223.374 173.861 222.56 173.861 221.555C173.861 220.551 173.047 219.737 172.043 219.737Z" fill="#6E57E0"/>
<path d="M151.001 220.04H130.411C129.407 220.04 128.593 220.854 128.593 221.859C128.593 222.863 129.407 223.677 130.411 223.677H151.001C152.006 223.677 152.82 222.863 152.82 221.859C152.82 220.854 152.006 220.04 151.001 220.04Z" fill="#6E57E0"/>
<path d="M133.522 211.527H130.209C129.205 211.527 128.39 212.342 128.39 213.346C128.39 214.351 129.205 215.165 130.209 215.165H133.522C134.526 215.165 135.341 214.351 135.341 213.346C135.341 212.342 134.526 211.527 133.522 211.527Z" fill="#6E57E0"/>
<path d="M171.411 211.527H168.098C167.094 211.527 166.28 212.342 166.28 213.346C166.28 214.351 167.094 215.165 168.098 215.165H171.411C172.416 215.165 173.23 214.351 173.23 213.346C173.23 212.342 172.416 211.527 171.411 211.527Z" fill="#6E57E0"/>
<path d="M182.147 211.527H178.834C177.829 211.527 177.015 212.342 177.015 213.346C177.015 214.351 177.829 215.165 178.834 215.165H182.147C183.151 215.165 183.965 214.351 183.965 213.346C183.965 212.342 183.151 211.527 182.147 211.527Z" fill="#6E57E0"/>
<path d="M161.105 211.831H140.515C139.511 211.831 138.696 212.645 138.696 213.649C138.696 214.654 139.511 215.468 140.515 215.468H161.105C162.11 215.468 162.924 214.654 162.924 213.649C162.924 212.645 162.11 211.831 161.105 211.831Z" fill="#6E57E0"/>
<path d="M143.626 203.318H140.313C139.308 203.318 138.494 204.132 138.494 205.137C138.494 206.141 139.308 206.955 140.313 206.955H143.626C144.63 206.955 145.444 206.141 145.444 205.137C145.444 204.132 144.63 203.318 143.626 203.318Z" fill="#6E57E0"/>
<path d="M181.515 203.318H178.202C177.198 203.318 176.383 204.132 176.383 205.137C176.383 206.141 177.198 206.955 178.202 206.955H181.515C182.519 206.955 183.334 206.141 183.334 205.137C183.334 204.132 182.519 203.318 181.515 203.318Z" fill="#6E57E0"/>
<path d="M192.25 203.318H188.937C187.933 203.318 187.119 204.132 187.119 205.137C187.119 206.141 187.933 206.955 188.937 206.955H192.25C193.255 206.955 194.069 206.141 194.069 205.137C194.069 204.132 193.255 203.318 192.25 203.318Z" fill="#6E57E0"/>
<path d="M171.209 203.621H150.619C149.614 203.621 148.8 204.436 148.8 205.44C148.8 206.444 149.614 207.259 150.619 207.259H171.209C172.213 207.259 173.028 206.444 173.028 205.44C173.028 204.436 172.213 203.621 171.209 203.621Z" fill="#6E57E0"/>
<path d="M262.579 346.542C262.194 346.737 261.802 346.933 261.417 347.123C251.44 352.111 243.458 354.947 232.539 358.054C231.617 347.76 230.727 329.668 229.862 318.453C229.634 315.542 229.407 313.098 229.186 311.374C229.13 310.457 228.943 309.554 228.63 308.69L228.668 311.374L228.763 318.453L229.312 358.938C215.73 362.531 201.779 364.542 187.735 364.931C187.003 364.949 186.283 364.962 185.588 364.975C185.342 364.981 185.102 364.987 184.862 364.987C184.072 364.994 183.289 365 182.5 365C167.701 365.011 152.955 363.223 138.586 359.677C138.896 349.491 139.205 331.601 139.502 318.453C139.565 315.883 139.622 313.49 139.685 311.374C139.805 306.853 139.931 303.594 140.051 302.502C139.945 302.695 139.862 302.901 139.805 303.114C139.22 305.837 138.822 308.597 138.612 311.374C138.391 313.49 138.17 315.883 137.949 318.453C136.774 332.112 135.549 350.684 134.286 358.559C126.768 356.507 119.392 353.969 112.203 350.962C108.414 349.383 104.692 347.68 101.038 345.853C101.733 341.307 102.459 336.21 103.204 330.925C103.785 326.827 104.385 322.615 104.998 318.453C105.945 312.024 106.917 305.722 107.902 300.171C109.342 292.063 110.82 285.546 112.285 282.553C113.674 279.711 115.063 276.907 116.408 274.224C116.876 273.283 117.343 272.354 117.798 271.451C117.905 271.237 118.012 271.028 118.12 270.82C119.086 268.919 120.021 267.1 120.911 265.395C121.675 263.937 122.401 262.56 123.09 261.291C124.757 258.209 126.171 255.753 127.22 254.199C131.602 247.551 138.127 242.602 145.71 240.174L145.899 240.123L146.032 240.18L158.946 236.214L160.834 235.633L162.103 235.242L166.574 231.838L169.005 229.988L171.285 228.251L175.743 224.86L203.345 226.559L208.719 239.498L220.756 243.9L220.964 243.805L221.147 243.729L221.337 243.78C228.918 246.21 235.442 251.159 239.827 257.805C240.42 258.695 241.14 259.87 241.955 261.291C242.649 262.497 243.407 263.874 244.228 265.395C245.396 267.561 246.672 270.005 248.023 272.651C248.32 273.232 248.623 273.826 248.926 274.426C249.488 275.537 250.059 276.672 250.638 277.829C251.983 280.513 253.372 283.317 254.761 286.165C255.967 288.634 257.186 293.711 258.386 300.171C259.377 305.539 260.362 311.867 261.316 318.453C262.566 326.991 261.234 337.215 262.364 345.07C262.434 345.569 262.51 346.055 262.579 346.542Z" fill="#3F3D56"/>
<path d="M182.888 214.532C200.618 214.532 214.991 200.159 214.991 182.429C214.991 164.7 200.618 150.327 182.888 150.327C165.159 150.327 150.786 164.7 150.786 182.429C150.786 200.159 165.159 214.532 182.888 214.532Z" fill="#211D35"/>
<path opacity="0.2" d="M130.289 300.144L135.654 279.436L140.392 297.304L130.289 300.144Z" fill="black"/>
<path d="M273.074 286.651C271.155 313.098 273.144 324.743 262.547 346.548C252.906 351.267 242.864 355.117 232.539 358.054C231.466 358.357 230.39 358.651 229.312 358.938C215.73 362.531 201.779 364.542 187.735 364.931C187.003 364.949 186.283 364.962 185.588 364.975C185.342 364.981 185.102 364.987 184.862 364.987C184.072 364.994 183.289 365 182.5 365C167.701 365.011 152.955 363.223 138.586 359.677C137.147 359.323 135.713 358.95 134.286 358.559C126.768 356.506 119.392 353.969 112.203 350.962C108.414 349.383 104.692 347.68 101.038 345.853C100.211 345.436 99.3835 345.02 98.5689 344.59C94.3822 337.227 92.0014 328.273 91.9509 317.512C94.8495 298.972 266.671 270.662 273.074 286.651Z" fill="#2F2E41"/>
<path opacity="0.2" d="M273.069 291.18C273.167 289.543 273.277 287.852 273.405 286.091C267.002 270.101 95.18 298.411 92.2815 316.951C92.2895 318.651 92.3622 320.301 92.4844 321.912C99.5037 303.612 262.737 276.706 273.069 291.18Z" fill="black"/>
<path d="M102.993 216.065C103.035 215.492 102.953 214.917 102.754 214.379C102.556 213.84 102.244 213.351 101.839 212.943C101.435 212.535 100.949 212.219 100.412 212.015C99.8755 211.811 99.3014 211.724 98.7285 211.761C98.5151 211.769 98.3027 211.795 98.0939 211.84L72.9846 217.512C72.4235 217.648 71.8971 217.901 71.4394 218.252C70.9816 218.604 70.6026 219.048 70.3268 219.555C69.9586 219.569 69.5929 219.622 69.236 219.714C68.4546 219.891 67.7158 220.22 67.0617 220.683C66.4075 221.146 65.8509 221.733 65.4237 222.41C64.9964 223.088 64.7068 223.843 64.5714 224.633C64.436 225.423 64.4575 226.231 64.6346 227.013C64.8117 227.794 65.141 228.533 65.6036 229.187C66.0663 229.841 66.6532 230.398 67.331 230.825C68.6997 231.688 70.3553 231.972 71.9333 231.614C72.8316 231.406 73.6718 230.999 74.3927 230.424L82.9013 254.383C83.3264 255.134 83.983 255.727 84.773 256.074C85.5631 256.421 86.4441 256.502 87.2845 256.307L103.608 252.618C104.442 252.423 105.192 251.968 105.752 251.319C106.311 250.671 106.651 249.862 106.721 249.008L102.993 216.065ZM71.5565 229.908C70.4295 230.163 69.2476 229.96 68.2701 229.344C67.2925 228.728 66.5991 227.75 66.3418 226.623C66.0845 225.497 66.2844 224.315 66.8976 223.335C67.5107 222.356 68.4872 221.66 69.6128 221.4C69.6921 221.38 69.7715 221.4 69.8508 221.38C69.8448 222.103 70.0296 222.814 70.3864 223.443L73.5002 228.877C72.9581 229.391 72.2861 229.748 71.5565 229.908Z" fill="#2F2E41"/>
<path d="M98.7286 211.761C98.9666 214.934 93.5322 218.583 86.2533 220.031C79.5693 221.4 73.5796 220.448 71.8937 217.949C72.2325 217.748 72.6006 217.601 72.9846 217.512L98.0939 211.84C98.3028 211.795 98.5151 211.769 98.7286 211.761Z" fill="#3F3D56"/>
<path d="M81.363 292.319L95.4665 285.267L83.7136 253.535L80.6162 237.531C80.2138 235.452 79.2728 233.515 77.8872 231.914C76.5016 230.312 74.7199 229.102 72.7203 228.405C70.7207 227.708 68.5731 227.548 66.4921 227.941C64.4112 228.333 62.4698 229.265 60.8619 230.644C58.4792 232.686 56.9832 235.574 56.6895 238.698C56.3958 241.823 57.3275 244.939 59.2879 247.39L70.7855 261.762L81.363 292.319Z" fill="#A0616A"/>
<path d="M95.4664 279.391L76.6619 288.793L90.9326 333.508C91.9573 336.719 93.7944 339.611 96.2656 341.903C98.7368 344.195 101.758 345.81 105.037 346.59C109.08 347.553 113.325 347.203 117.155 345.591C120.986 343.979 124.204 341.189 126.342 337.625L164.184 272.763C166.866 268.293 167.693 262.952 166.49 257.88C165.287 252.809 162.149 248.409 157.745 245.62C155.377 244.12 152.72 243.136 149.946 242.731C147.172 242.326 144.344 242.51 141.645 243.27C138.947 244.03 136.439 245.35 134.285 247.144C132.131 248.938 130.378 251.165 129.141 253.681L106.044 302.897L95.4664 279.391Z" fill="#3F3D56"/>
<path d="M89.6503 238.981C89.6154 238.981 89.5807 238.975 89.5477 238.964L85.4421 237.55C85.3925 237.534 85.3479 237.504 85.3123 237.466C85.2768 237.427 85.2514 237.381 85.2386 237.33C85.2257 237.279 85.2257 237.226 85.2385 237.175C85.2514 237.124 85.2767 237.077 85.3123 237.039L88.3658 233.714C88.3937 233.683 88.4275 233.658 88.4651 233.641C88.5027 233.623 88.5435 233.613 88.585 233.611C88.6265 233.609 88.668 233.616 88.7071 233.63C88.7461 233.644 88.782 233.666 88.8126 233.694C88.8432 233.722 88.868 233.756 88.8855 233.794C88.903 233.831 88.9128 233.872 88.9145 233.914C88.9162 233.955 88.9097 233.997 88.8953 234.036C88.8809 234.075 88.859 234.11 88.8308 234.141L86.1035 237.11L89.753 238.367C89.8237 238.391 89.8834 238.44 89.9216 238.504C89.9598 238.568 89.9741 238.644 89.9617 238.718C89.9494 238.791 89.9114 238.858 89.8544 238.906C89.7973 238.955 89.725 238.981 89.6503 238.981Z" fill="#6C63FF"/>
<path d="M95.2779 237.829C95.215 237.829 95.1536 237.81 95.1014 237.775C95.0492 237.74 95.0088 237.69 94.9852 237.632C94.9616 237.574 94.956 237.51 94.969 237.448C94.982 237.387 95.0132 237.33 95.0584 237.287L97.8335 234.603L94.1056 233.067C94.0672 233.051 94.0323 233.028 94.0028 232.999C93.9734 232.97 93.9501 232.935 93.9341 232.897C93.9181 232.858 93.9098 232.817 93.9097 232.776C93.9096 232.734 93.9177 232.693 93.9335 232.655C93.9493 232.617 93.9726 232.582 94.0019 232.552C94.0312 232.523 94.066 232.5 94.1043 232.484C94.1426 232.468 94.1837 232.46 94.2252 232.46C94.2667 232.46 94.3078 232.468 94.3461 232.484L98.5198 234.204C98.5683 234.224 98.6111 234.255 98.6442 234.296C98.6774 234.336 98.6999 234.385 98.7098 234.436C98.7196 234.488 98.7165 234.541 98.7007 234.591C98.6849 234.641 98.6568 234.686 98.6191 234.722L95.4974 237.74C95.4386 237.797 95.3598 237.829 95.2779 237.829Z" fill="#6C63FF"/>
<path d="M90.5121 240.913C90.4806 240.913 90.4493 240.908 90.4193 240.898C90.3796 240.886 90.3428 240.866 90.3108 240.84C90.2788 240.814 90.2523 240.781 90.2329 240.744C90.2135 240.708 90.2015 240.668 90.1976 240.626C90.1937 240.585 90.198 240.543 90.2102 240.504L93.1244 231.031C93.1493 230.952 93.2048 230.885 93.2788 230.846C93.3528 230.807 93.4392 230.799 93.519 230.824C93.5989 230.848 93.6658 230.904 93.705 230.978C93.7442 231.051 93.7525 231.138 93.7281 231.218L90.814 240.69C90.794 240.754 90.754 240.811 90.6996 240.851C90.6453 240.891 90.5796 240.913 90.5121 240.913Z" fill="#6C63FF"/>
</g>
<defs>
<clipPath id="clip0_17_327">
<rect width="365" height="365" fill="white"/>
</clipPath>
</defs>
</svg>
